<svg id="Capa_1" enable-background="new 0 0 512 512" height="512" viewBox="0 0 512 512" width="512" xmlns="http://www.w3.org/2000/svg"><g><g><g><g><path d="m500.398 500.398c-15.47 15.47-40.551 15.47-56.021 0l-144.16-144.16 56.021-56.021 144.16 144.16c15.469 15.469 15.469 40.551 0 56.021z" fill="#706c64"/><path d="m500.4 500.398c-15.477 15.466-40.551 15.466-56.029 0l-.853-.853c2.044-9.313 3.115-18.997 3.115-28.921 0-71.604-55.865-130.146-126.387-134.42l35.993-35.982 144.161 144.158c15.466 15.466 15.466 40.551 0 56.018z" fill="#595751"/><path d="m394.306 414.905h79.226v38.028h-79.226z" fill="#ffc751" transform="matrix(.707 -.707 .707 .707 -179.735 433.919)"/><path d="m378.15 321.359-56.791 56.791c-11.957 11.957-31.343 11.957-43.3 0l-41.094-41.094 100.091-100.091 41.094 41.094c11.957 11.957 11.957 31.343 0 43.3z" fill="#ffc751"/><path d="m378.145 321.36-56.783 56.794c-10.067 10.067-25.391 11.663-37.13 4.776 33.239-18.855 55.668-54.575 55.668-95.519 0-15.674-3.29-30.583-9.214-44.071l6.372-6.372 41.087 41.087c11.958 11.957 11.958 31.347 0 43.305z" fill="#ffaf40"/></g></g><circle cx="185.102" cy="185.102" fill="#8f8b81" r="185.102"/><circle cx="185.102" cy="185.102" fill="#52efff" r="133.281"/><path d="m318.378 185.103c0 73.605-59.668 133.284-133.273 133.284-8.263 0-16.341-.754-24.189-2.197 62.062-11.378 109.084-65.745 109.084-131.087s-47.021-119.708-109.083-131.087c7.848-1.443 15.925-2.197 24.189-2.197 73.604 0 133.272 59.679 133.272 133.284z" fill="#06d0ff"/><path d="m253.684 47.334.286-.436c9.391-14.328 2.331-33.555-14.035-38.616-63.49-19.632-135.458-4.325-185.719 45.935-20.07 20.07-34.566 43.603-43.489 68.674-5.925 16.647 6.576 34.123 24.246 34.123h.527c10.88 0 20.516-6.88 24.197-17.118 6.435-17.899 16.82-34.696 31.161-49.037 36.185-36.185 88.001-47.205 133.716-33.069 10.954 3.387 22.825-.867 29.11-10.456z" fill="#b5b1a4"/><path d="m279.346 279.345c-6.114 6.114-12.675 11.506-19.577 16.179-13.416 9.083-15.103 28.215-3.647 39.671 8.831 8.831 22.674 10.064 33 3.04 9.468-6.44 18.471-13.853 26.867-22.248 20.07-20.07 34.566-43.602 43.489-68.674 5.925-16.647-6.576-34.123-24.246-34.123h-.527c-10.88 0-20.516 6.88-24.197 17.118-6.436 17.899-16.821 34.696-31.162 49.037z" fill="#b5b1a4"/><path d="m180.891.073c-28.567.644-57.011 7.863-82.872 21.658-15.154 8.084-18.097 28.582-5.953 40.726l.388.388c8.007 8.007 20.281 9.75 30.287 4.449 18.488-9.793 38.795-14.929 59.192-15.409 12.508-.295 23.064-9.377 24.956-21.745.026-.171.052-.342.078-.512 2.425-15.833-10.062-29.916-26.076-29.555z" fill="#d8d4c9"/><path d="m475.37 419.35-30.364 30.364c-2.23-14.406-6.766-28.058-13.193-40.573l16.669-16.679z" fill="#ffaf40"/></g><path d="m101.82 185.1c0-32.36 18.559-60.451 45.589-74.221 10.449-5.323 15.751-17.225 12.701-28.548l-.13-.483c-4.091-15.187-21.12-22.772-35.143-15.651-43.328 22-73.017 66.982-73.017 118.903 0 35.519 13.893 67.79 36.542 91.679 10.217 10.776 27.643 9.947 37.028-1.561l.318-.39c7.876-9.641 7.342-23.615-1.199-32.673-14.059-14.909-22.689-34.99-22.689-57.055z" fill="#99faff"/><path d="m104.441 164.38c3.813-14.833 11.622-28.077 22.208-38.516 8.265-8.15 9.77-20.894 3.635-30.747-.088-.142-.176-.283-.264-.425-8.395-13.509-27.072-15.716-38.407-4.558-17.148 16.88-29.743 38.368-35.781 62.46-3.896 15.546 7.929 30.601 23.956 30.601h.69c11.368 0 21.132-7.804 23.963-18.815z" fill="#c7ffff"/></g></svg>